#N canvas 24 212 282 187 12;
#N canvas 18 61 1273 674 sp 0;
#X obj 293 59 cnv 15 250 350 empty empty empty 20 12 0 14 -228992 -66577
0;
#X obj 438 342 cnv 15 100 60 empty empty empty 20 12 0 14 -195568 -66577
0;
#N canvas 0 0 450 300 gemwin 0;
#X obj 132 136 gemwin;
#X obj 67 89 outlet;
#X obj 67 10 inlet;
#X msg 67 70 set destroy;
#X msg 132 112 create \, 1;
#X msg 198 112 destroy;
#X msg 156 71 set create;
#X obj 67 41 route create;
#X msg 196 168 dimen 640 480;
#X obj 196 143 loadbang;
#X connect 2 0 7 0;
#X connect 3 0 1 0;
#X connect 4 0 0 0;
#X connect 5 0 0 0;
#X connect 6 0 1 0;
#X connect 7 0 3 0;
#X connect 7 0 4 0;
#X connect 7 1 6 0;
#X connect 7 1 5 0;
#X connect 8 0 0 0;
#X connect 9 0 8 0;
#X restore 443 381 pd gemwin;
#X msg 443 362 create;
#X text 439 341 Create window:;
#X obj 295 90 cnv 15 155 250 empty empty empty 20 12 0 14 -24198 -66577
0;
#X obj 295 65 gemhead;
#X obj 295 362 pix_texture;
#X obj 307 95 bng 25 250 50 0 empty empty empty 0 -6 0 8 -262144 -1
-1;
#X text 349 59 open a supported;
#X text 350 70 movie-clip;
#X obj 320 289 unpack 0 0 0;
#X floatatom 310 312 5 0 0 3 length - -;
#X floatatom 360 314 5 0 0 3 width - -;
#X floatatom 409 312 5 0 0 3 height - -;
#X obj 364 270 bng 15 250 50 0 empty empty end_reached 20 7 0 10 -262144
-1 -1;
#X floatatom 350 233 5 0 10000 1 frame# - -;
#X obj 307 124 openpanel;
#X msg 307 144 open \$1;
#X obj 295 384 rectangle 4 3;
#X obj 295 253 pix_film;
#X msg 313 187 auto \$1;
#X obj 313 169 tgl 15 0 empty empty empty 0 -6 0 8 -262144 -1 -1 1
1;
#X msg 324 211 colorspace Grey;
#X obj 77 86 playlist all 200 300 {Helvetica 10 bold} #457782 yellow
black red;
#X obj 74 17 loadbang;
#X obj 69 437 keyname;
#X msg 121 500 1;
#X msg 161 558 3;
#X symbolatom 76 413 80 0 0 0 - - -;
#X msg 472 206 0;
#X msg 185 574 4;
#X msg 199 497 5;
#X msg 213 534 6;
#X msg 238 562 7;
#X msg 268 602 8;
#X msg 262 496 9;
#X symbolatom 576 460 10 0 0 0 - - -;
#X obj 496 318 tgl 15 0 empty on_off empty 17 7 0 10 -262144 -1 -1
1 1;
#X obj 495 341 bng 15 250 50 0 empty empty empty 17 7 0 10 -262144
-1 -1;
#X msg 290 515 10;
#X msg 74 38 location /home/vanessa/videos/movies/;
#X msg 319 548 11;
#X msg 348 575 12;
#X msg 383 609 13;
#X msg 141 527 2;
#X msg 316 490 14;
#X msg 344 509 15;
#X msg 373 542 16;
#X msg 402 569 17;
#X msg 437 603 18;
#X msg 423 535 19;
#X msg 459 570 20;
#X msg 494 604 21;
#X msg 425 489 22;
#X msg 455 504 23;
#X msg 484 537 24;
#X msg 513 564 25;
#X msg 545 590 26;
#X msg 517 496 27;
#X msg 544 518 28;
#X msg 40 605 seek \$1;
#X obj 137 440 sel e i t a p o r a t o d o m u n d o n a l a n h o
u s e !;
#X msg 580 542 29;
#X obj 662 18 loadbang;
#X obj 666 87 playlist all 200 300 {Helvetica 10 bold} #457782 yellow
black red;
#X symbolatom 671 410 80 0 0 0 - - -;
#X floatatom 1047 377 8 0 0 0 - - -;
#X obj 1033 336 oggread~;
#X msg 1072 164 start;
#X msg 1107 219 stop;
#X msg 1115 280 resume;
#X msg 1033 38 open myfile.ogg;
#X msg 1469 387 \; pd dsp 0;
#X msg 1123 243 0;
#X obj 1108 348 bng 15 250 50 0 empty empty empty 0 -6 0 8 -262144
-1 -1;
#X obj 1052 95 openpanel;
#X msg 1052 67 bang;
#X msg 1052 122 open \$1;
#X msg 1146 310 seek 60;
#X symbolatom 1168 380 10 0 0 0 - - -;
#X symbolatom 675 583 80 0 0 0 - - -;
#X msg 1092 188 1;
#X msg 661 46 location /home/vanessa/videos/audio/;
#X obj 655 493 sel e i t a p o r a t o d o m u n d o n a l a n h o
u s e;
#X obj 1081 471 outlet~;
#X connect 2 0 3 0;
#X connect 3 0 2 0;
#X connect 6 0 20 0;
#X connect 7 0 19 0;
#X connect 8 0 17 0;
#X connect 11 0 12 0;
#X connect 11 1 13 0;
#X connect 11 2 14 0;
#X connect 15 0 30 0;
#X connect 16 0 20 1;
#X connect 17 0 18 0;
#X connect 18 0 20 0;
#X connect 20 0 7 0;
#X connect 20 1 11 0;
#X connect 20 2 15 0;
#X connect 21 0 20 0;
#X connect 22 0 21 0;
#X connect 23 0 20 0;
#X connect 24 0 18 0;
#X connect 24 0 29 0;
#X connect 25 0 41 0;
#X connect 25 0 22 0;
#X connect 26 1 37 0;
#X connect 26 1 62 0;
#X connect 27 0 61 0;
#X connect 27 0 81 0;
#X connect 28 0 61 0;
#X connect 28 0 81 0;
#X connect 30 0 16 0;
#X connect 31 0 61 0;
#X connect 31 0 81 0;
#X connect 32 0 61 0;
#X connect 32 0 81 0;
#X connect 33 0 61 0;
#X connect 33 0 81 0;
#X connect 34 0 61 0;
#X connect 34 0 81 0;
#X connect 35 0 61 0;
#X connect 35 0 81 0;
#X connect 36 0 61 0;
#X connect 36 0 81 0;
#X connect 38 0 39 0;
#X connect 39 0 3 0;
#X connect 39 0 70 0;
#X connect 40 0 61 0;
#X connect 40 0 81 0;
#X connect 41 0 24 0;
#X connect 42 0 61 0;
#X connect 42 0 81 0;
#X connect 43 0 61 0;
#X connect 43 0 81 0;
#X connect 44 0 61 0;
#X connect 44 0 81 0;
#X connect 45 0 61 0;
#X connect 45 0 81 0;
#X connect 46 0 61 0;
#X connect 46 0 81 0;
#X connect 47 0 61 0;
#X connect 47 0 81 0;
#X connect 48 0 61 0;
#X connect 48 0 81 0;
#X connect 49 0 61 0;
#X connect 49 0 81 0;
#X connect 50 0 61 0;
#X connect 50 0 81 0;
#X connect 51 0 61 0;
#X connect 51 0 81 0;
#X connect 52 0 61 0;
#X connect 52 0 81 0;
#X connect 53 0 61 0;
#X connect 53 0 81 0;
#X connect 54 0 61 0;
#X connect 54 0 81 0;
#X connect 55 0 61 0;
#X connect 55 0 81 0;
#X connect 56 0 61 0;
#X connect 56 0 81 0;
#X connect 57 0 61 0;
#X connect 57 0 81 0;
#X connect 58 0 61 0;
#X connect 58 0 81 0;
#X connect 59 0 61 0;
#X connect 59 0 81 0;
#X connect 60 0 61 0;
#X connect 60 0 81 0;
#X connect 61 0 24 0;
#X connect 61 0 65 0;
#X connect 62 0 27 0;
#X connect 62 1 45 0;
#X connect 62 2 28 0;
#X connect 62 3 31 0;
#X connect 62 4 32 0;
#X connect 62 5 33 0;
#X connect 62 6 34 0;
#X connect 62 7 35 0;
#X connect 62 8 36 0;
#X connect 62 9 40 0;
#X connect 62 10 42 0;
#X connect 62 11 43 0;
#X connect 62 12 44 0;
#X connect 62 13 46 0;
#X connect 62 14 47 0;
#X connect 62 15 48 0;
#X connect 62 16 49 0;
#X connect 62 17 50 0;
#X connect 62 18 51 0;
#X connect 62 19 52 0;
#X connect 62 20 53 0;
#X connect 62 21 54 0;
#X connect 62 22 55 0;
#X connect 62 23 56 0;
#X connect 62 24 57 0;
#X connect 62 25 58 0;
#X connect 62 26 59 0;
#X connect 62 27 60 0;
#X connect 62 28 63 0;
#X connect 63 0 61 0;
#X connect 63 0 81 0;
#X connect 64 0 83 0;
#X connect 65 0 66 0;
#X connect 65 0 78 0;
#X connect 68 0 85 0;
#X connect 68 2 67 0;
#X connect 68 3 75 0;
#X connect 69 0 68 0;
#X connect 70 0 68 0;
#X connect 71 0 68 0;
#X connect 72 0 68 0;
#X connect 74 0 68 0;
#X connect 76 0 78 0;
#X connect 77 0 76 0;
#X connect 78 0 68 0;
#X connect 78 0 65 0;
#X connect 79 0 68 0;
#X connect 80 0 68 0;
#X connect 81 0 69 0;
#X connect 82 0 68 0;
#X connect 83 0 65 0;
#X connect 84 0 81 0;
#X restore -113 -68 pd sp;
#X obj -52 -66 tgl 15 0 on_off empty empty 17 7 0 10 -262144 -1 -1
1 1;
#X text -36 -70 on/off;
#N canvas 333 107 450 300 leia-me 0;
#X text -104 40 PARA ASSISTIR TRECHOS DO VIDEO SAMPA GRAFFITE \, DIGITE:
EITA PORRA TA TODO MUNDO NA LAN HOUSE! CADA LETRA = UM TRECHO DO VIDEO
CAPS LOCK = DESLIGADA;
#X text -96 103 ATENCAO PARA O VOLUME;
#X restore -37 -17 pd leia-me;
#X obj -66 27 output~;
#X connect 0 0 4 0;
